<svg version="1.1" xmlns="http://www.w3.org/2000/svg" xmlns:xlink="http://www.w3.org/1999/xlink" width="48" height="48"><defs><linearGradient x1="8.44322" y1="14.66593" x2="88.57241" y2="82.3497" gradientUnits="userSpaceOnUse" id="color-1"><stop offset="0.06" stop-color="#000000" stop-opacity="0.44"></stop><stop offset="1" stop-color="#000000" stop-opacity="0"></stop></linearGradient><filter id="dropshadow-base"><feColorMatrix type="matrix" values="0 0 0 0 0  0 0 0 0 0  0 0 0 0 0  0 0 0 .8 0"></feColorMatrix> <feOffset dx="0" dy="1"></feOffset> <feGaussianBlur stdDeviation="1"></feGaussianBlur> <feComposite in="SourceGraphic"></feComposite></filter><filter id="dropshadow-banner" x="-10%" y="-10%" width="120%" height="130%"><feColorMatrix type="matrix" values="0 0 0 0 0  0 0 0 0 0  0 0 0 0 0  0 0 0 .4 0"></feColorMatrix> <feOffset dx="0" dy="1"></feOffset> <feGaussianBlur stdDeviation="0.5"></feGaussianBlur> <feComposite in="SourceGraphic"></feComposite></filter></defs><g fill="none" fill-rule="nonzero" stroke="none" stroke-width="none" stroke-linecap="butt" stroke-linejoin="miter" stroke-miterlimit="10" stroke-dasharray="" stroke-dashoffset="0" font-family="none" font-weight="none" font-size="none" text-anchor="none" style="mix-blend-mode: normal"><path d="M2,24c0,-12.15026 9.84974,-22 22,-22c12.15026,0 22,9.84974 22,22c0,12.15026 -9.84974,22 -22,22c-12.15026,0 -22,-9.84974 -22,-22z" id="base 1 5" fill="#5762d5" stroke-width="1"></path><path d="M20.03302,16.84388l11.16199,11.16199l4.00587,-4.00587l2.17795,2.17795l2.17795,-2.17795l5.69813,5.69813c-2.02447,7.57066 -7.98612,13.53232 -15.55678,15.55678l-21.25492,-21.25492l9.33407,-9.33407z" fill="url(#color-1)" stroke-width="1"></path><path d="M19.95524,31.15612l-7.07834,-7.15612l7.15612,-7.15612l-2.25573,-2.17795l-9.33407,9.33407l9.33407,9.33407zM28.04476,31.15612l7.15612,-7.15612l-7.15612,-7.15612l2.17795,-2.17795l9.33407,9.33407l-9.33407,9.33407z" fill="none" stroke-width="0"></path><path d="M17.77729,33.33407l-9.33407,-9.33407l9.33407,-9.33407l2.25573,2.17795l-7.15612,7.15612l7.07834,7.15612zM28.04476,31.15612l7.15612,-7.15612l-7.15612,-7.15612l2.17795,-2.17795l9.33407,9.33407l-9.33407,9.33407z" fill="#ffffff" stroke-width="0"></path><path d="M2,24c0,-12.15026 9.84974,-22 22,-22c12.15026,0 22,9.84974 22,22c0,12.15026 -9.84974,22 -22,22c-12.15026,0 -22,-9.84974 -22,-22z" id="base 1 1 1" fill="none" stroke-width="1"></path><g fill="#000000" stroke-width="1" font-family="Roboto, sans-serif" font-weight="400" font-size="14" text-anchor="start"></g><rect x="2" y="2" width="44" height="22" fill="none" stroke-width="1"></rect><path d="M2,24v-22h44v22z" fill="none" stroke-width="1"></path><path d="M2,24v-22h44v22z" fill="none" stroke-width="1"></path><path d="M2,24v-22h44v22z" fill="none" stroke-width="1"></path><path d="M2,24v-22h44v22z" fill="none" stroke-width="1"></path></g></svg>